<svg width="51" height="57" viewBox="0 0 51 57" fill="none" xmlns="http://www.w3.org/2000/svg">
<path d="M49.4295 24.3189C48.8546 23.5434 48.0109 23.0443 47.053 22.9098C46.0909 22.7733 45.1415 23.026 44.3734 23.6138L41.8699 25.5327L41.8688 25.5338L38.0735 28.368L35.3577 27.2864C40.2004 25.1136 43.5851 20.2698 43.5851 14.6462C43.5851 7.00017 37.3396 0.779327 29.6627 0.779327C21.9858 0.779327 15.7405 7.00017 15.7405 14.6462C15.7405 17.4175 16.5693 19.9945 17.9805 22.163L12.4529 22.115C12.4497 22.115 12.4466 22.115 12.4433 22.115C12.4262 22.115 12.4124 22.1235 12.3964 22.1247C12.2908 22.1289 12.1873 22.1503 12.0861 22.1865C12.0604 22.1962 12.0338 22.2015 12.0093 22.2132C11.9966 22.2185 11.9837 22.2195 11.9709 22.2259L5.50471 25.4185C5.50359 25.4185 5.50259 25.4185 5.50259 25.4195L1.71578 27.2405C1.67415 27.2586 1.63153 27.2831 1.5899 27.3109C0.0805013 28.3156 -0.433632 30.289 0.393131 31.9018C0.833638 32.7594 1.58352 33.391 2.50516 33.68C2.86042 33.7908 3.22305 33.8453 3.58356 33.8453C4.16282 33.8453 4.7367 33.7035 5.26246 33.423L8.038 31.9467L12.5661 29.6085L15.2797 29.5925L4.39632 40.4237C4.39532 40.4248 4.39419 40.4248 4.39307 40.4258L1.71565 43.0925C1.08314 43.7219 0.735387 44.557 0.735387 45.4478C0.735387 46.3374 1.08314 47.1747 1.71565 47.8052C2.36529 48.4516 3.21968 48.7758 4.07406 48.7758C4.92958 48.7758 5.78284 48.4516 6.4346 47.8052L9.06289 45.1875L12.5446 42.588L14.3462 44.3821L10.8229 47.8904C10.8219 47.8916 10.8208 47.8916 10.8197 47.8926L8.14225 50.5592C7.50974 51.1886 7.16199 52.0237 7.16199 52.9145C7.16199 53.8041 7.50974 54.6414 8.14225 55.2719C8.79189 55.9183 9.6474 56.2426 10.5018 56.2426C11.3562 56.2426 12.2117 55.9183 12.8623 55.2719L15.5407 52.6052L19.8256 48.3386C19.8267 48.3374 19.8267 48.3364 19.8277 48.3353L21.847 46.3353L21.8395 46.3278C21.8522 46.315 21.8703 46.3106 21.8832 46.2969L32.2151 34.9805L39.1571 35.9682C39.2072 35.9757 39.2574 35.9789 39.3075 35.9789C39.4366 35.9789 39.5614 35.948 39.6819 35.9021C39.7171 35.8894 39.748 35.8722 39.7811 35.8552C39.8195 35.836 39.86 35.8254 39.8964 35.8009L46.3231 31.5342C46.3466 31.5182 46.3594 31.4925 46.3817 31.4755C46.4074 31.4553 46.4394 31.4468 46.4627 31.4243L49.0056 29.0424C50.3288 27.8026 50.5112 25.7717 49.4295 24.3189ZM4.26082 31.5403C3.91419 31.7259 3.52056 31.7632 3.14405 31.6438C2.77067 31.5275 2.46779 31.2725 2.29066 30.928C1.96853 30.3008 2.15516 29.537 2.71942 29.1243L5.34671 27.8602L5.97922 29.7088L6.24485 30.4853L4.26082 31.5403ZM11.2551 27.8849L8.1585 29.4849L7.64762 27.9915L7.28074 26.9184L11.3342 24.9172L11.2551 27.8849ZM41.4539 14.644C41.4539 16.4808 41.0155 18.2132 40.256 19.763L31.8933 15.9646C31.8057 14.8179 31.2106 13.8142 30.3167 13.189L33.2448 3.46837C38.0001 4.98102 41.4539 9.41733 41.4539 14.644ZM17.876 14.644C17.876 8.17456 23.1646 2.91049 29.665 2.91049C30.1706 2.91049 30.6655 2.95311 31.1551 3.01499L28.2911 12.5224C28.2527 12.5213 28.2164 12.5106 28.1769 12.5106C26.1118 12.5106 24.4318 14.1853 24.4318 16.2441C24.4318 18.3027 26.1118 19.9775 28.1769 19.9775C29.5657 19.9775 30.7657 19.2106 31.4132 18.0883L39.1381 21.5978C36.9887 24.4906 33.5487 26.3776 29.6648 26.3776C23.1646 26.3776 17.876 21.1135 17.876 14.644ZM29.7887 16.2441C29.7887 17.1262 29.0655 17.8441 28.1769 17.8441C27.2884 17.8441 26.5652 17.1262 26.5652 16.2441C26.5652 15.3619 27.2884 14.644 28.1769 14.644C29.0655 14.644 29.7887 15.3619 29.7887 16.2441ZM4.9297 46.2925C4.4572 46.7608 3.69231 46.7598 3.22093 46.2936C2.99367 46.0664 2.86892 45.7668 2.86892 45.4478C2.86892 45.1299 2.99367 44.8301 3.22093 44.6051L5.14508 42.6882L6.84748 44.3832L4.9297 46.2925ZM11.3574 53.7594C10.8849 54.2276 10.119 54.2288 9.64753 53.7605C9.42027 53.5333 9.29552 53.2336 9.29552 52.9146C9.29552 52.5967 9.42027 52.297 9.64753 52.072L11.5729 50.1541L12.3783 50.9552L13.2765 51.8491L11.3574 53.7594ZM18.3208 46.8217C18.3197 46.8227 18.3187 46.8227 18.3175 46.8238L14.7879 50.3438L13.9825 49.5427L13.0843 48.6488L16.6108 45.1384C16.6108 45.1384 16.6108 45.1384 16.6108 45.1374C16.6119 45.1363 16.6129 45.1363 16.614 45.1353C16.694 45.0553 16.7441 44.9593 16.7933 44.8644C16.8071 44.8366 16.8338 44.8131 16.8455 44.7844C16.8786 44.7023 16.8839 44.6138 16.8968 44.5272C16.9031 44.4781 16.9245 44.4324 16.9245 44.3821C16.9245 44.3106 16.8989 44.2414 16.884 44.1709C16.8713 44.1069 16.8713 44.0417 16.8466 43.98C16.8061 43.8797 16.7368 43.7912 16.6643 43.7047C16.644 43.6812 16.6365 43.6514 16.6141 43.629C16.6141 43.629 16.6141 43.629 16.613 43.629C16.6119 43.628 16.6119 43.6257 16.6109 43.6247L13.397 40.4247C13.3628 40.3906 13.3191 40.3767 13.2807 40.3479C13.2242 40.3042 13.1698 40.2637 13.1068 40.2327C13.0461 40.2028 12.9842 40.1847 12.9202 40.1676C12.852 40.1483 12.7858 40.1334 12.7143 40.1281C12.6492 40.1238 12.5884 40.1302 12.5234 40.1377C12.4519 40.1462 12.3848 40.1558 12.3154 40.1782C12.2482 40.1996 12.1886 40.2326 12.1267 40.2678C12.0872 40.2902 12.0424 40.2977 12.0051 40.3254L8.45838 42.973L6.65673 41.1788L11.4547 36.4065L20.1759 44.9838L18.3208 46.8217ZM31.9584 32.7883C31.9275 32.7841 31.8986 32.7958 31.8678 32.7937C31.7899 32.7894 31.7153 32.7948 31.6374 32.8076C31.5766 32.8182 31.519 32.8299 31.4614 32.8502C31.3931 32.8737 31.3312 32.9057 31.2682 32.9441C31.2085 32.9803 31.1541 33.0187 31.1019 33.0667C31.0762 33.0891 31.0454 33.0998 31.0219 33.1253L21.6253 43.4167L12.9692 34.9035L18.6354 29.2671C19.0525 28.8511 19.0547 28.1759 18.6387 27.7577C18.4285 27.5476 18.1523 27.4441 17.876 27.4452V27.4442L13.4386 27.4709L13.4941 24.2559L19.7022 24.3093C22.2324 26.8971 25.7609 28.511 29.665 28.511C30.5396 28.511 31.393 28.4204 32.2239 28.2656C32.3039 28.3296 32.3828 28.3948 32.4831 28.4353L37.3025 30.3553L37.6075 31.8721L37.9637 33.6427L31.9584 32.7883ZM40.0406 33.1446L39.4145 30.0288L42.3073 27.8687L43.0647 28.8735L44.2007 30.3818L40.0406 33.1446ZM47.5479 27.4826L45.8721 29.0528L44.0097 26.5802L45.6726 25.3056C45.983 25.0667 46.3745 24.9696 46.7585 25.0197C47.1446 25.0741 47.486 25.2757 47.7185 25.5882C48.1516 26.1717 48.078 26.9856 47.5479 27.4826Z" fill="#2E2F42"/>
</svg>
